<?xml version="1.0" encoding="UTF-8"?> <svg xmlns="http://www.w3.org/2000/svg" width="289" height="314" viewBox="0 0 289 314" fill="none"> <circle cx="144.5" cy="144.5" r="144.5" fill="#F0D1BB"></circle> <path fill-rule="evenodd" clip-rule="evenodd" d="M134.457 48.142C125.602 49.434 114.047 54.1847 106.141 59.7828C100.837 63.5394 93.6494 70.7896 89.86 76.2074C86.2841 81.3194 82.099 89.4837 80.4566 94.5499C78.2533 101.348 76.0201 115.73 76.0354 123.024C76.0409 125.565 75.261 127.061 67.4253 139.532C55.8425 157.968 56.0437 157.517 58.047 160.574C59.3535 162.567 62.0737 163.284 74.297 164.859C77.3168 165.248 77.1847 165.089 79.128 170.671C80.3857 174.284 80.6095 191.051 79.4651 195.93C78.2484 201.116 78.2423 202.838 79.4265 206.192C81.2096 211.243 84.8883 213.624 93.1686 215.084C105.14 217.194 118.612 215.216 129.411 209.762L132.928 207.986L132.937 215.773C132.947 224.365 133.393 225.926 136.303 227.545C138.496 228.766 146.553 231.349 151.279 232.346C166.448 235.549 184.324 234.566 197.155 229.826C203.741 227.393 204.675 226.03 203.288 220.879C202.961 219.663 202.152 216.467 201.492 213.776C200.831 211.086 199.425 205.583 198.366 201.548C194.817 188.02 192.889 180.156 192.895 179.231C192.898 178.727 194.272 176.801 195.947 174.951C199.816 170.682 206.478 160.869 208.126 157.014C212.906 145.833 214.885 136.32 214.885 124.509C214.885 111.034 212.388 100.377 206.432 88.4357C196.332 68.1843 178.901 54.3969 156.713 49.1093C153.714 48.3946 137.543 47.6914 134.457 48.142ZM151.082 54.5075C165.13 56.3179 177.891 62.8032 188.055 73.2976C193.756 79.1825 197.45 84.3759 200.999 91.4928C204.269 98.0515 206.522 104.452 207.823 110.88C208.921 116.301 209.12 131.367 208.163 136.502C207.432 140.42 205.84 146.098 205.056 147.582C204.748 148.166 204.495 148.945 204.495 149.314C204.495 150.418 199.962 159.221 197.401 163.09C195.083 166.593 191.263 170.775 187.827 173.573C185.789 175.233 185.739 176.374 187.394 183.403C188.786 189.314 188.713 189.023 190.732 196.657C193.866 208.505 197.155 221.863 197.155 222.748C197.155 223.333 194.992 224.296 191.65 225.198C183.005 227.532 181.295 227.735 170.241 227.738C157.181 227.742 153.178 227.167 144.037 223.974C139.737 222.47 139.594 221.952 140.446 210.878L141.186 201.267L148.22 195.37C165.389 180.976 167.561 178.379 163.843 176.686C161.8 175.755 161.948 175.657 149.879 185.923C139.405 194.833 136.835 196.839 131.511 200.259C121.628 206.607 115.98 208.071 101.121 208.137C85.982 208.205 84.665 207.486 85.4553 199.592C86.823 185.927 86.4138 172.867 84.4338 167.003C82.3051 160.699 80.623 159.577 71.2196 158.195C67.7263 157.681 64.718 157.111 64.5351 156.928C64.061 156.454 66.1726 152.826 73.5532 141.432C77.1083 135.944 80.5331 130.632 81.1637 129.629C82.0751 128.178 82.4183 125.901 82.8379 118.514C83.6575 104.082 84.7629 98.9069 88.8569 90.3329C96.6828 73.9427 109.854 61.8311 125.282 56.8389C134.217 53.9481 141.579 53.2822 151.082 54.5075ZM149.92 90.1171C149.433 90.8741 148.875 92.0431 148.683 92.7156C148.491 93.3882 146.912 97.928 145.175 102.804C143.438 107.68 141.577 113.045 141.04 114.727C140.503 116.408 138.854 121.498 137.376 126.038C135.898 130.578 134.533 135.571 134.342 137.133C134.045 139.574 134.173 140.069 135.252 140.647C137.149 141.661 138.425 140.834 139.762 137.72C140.427 136.171 144.278 125.047 148.319 112.999C155.365 91.9929 155.623 91.0471 154.601 89.9184C153.171 88.3391 151.008 88.4308 149.92 90.1171ZM121.859 98.6012C114.985 104.287 107.237 112.117 107.237 113.379C107.237 115.838 120.995 131.541 123.15 131.541C124.267 131.541 126.2 129.704 126.2 128.643C126.2 127.997 122.159 122.618 120.168 120.613C118.605 119.04 114.578 114.027 114.578 113.656C114.578 113.473 117.745 110.525 121.617 107.105C127.532 101.882 130.481 98.5431 130.481 97.0696C130.481 96.3469 128.455 94.8556 127.474 94.8556C126.877 94.8556 124.35 96.5413 121.859 98.6012ZM164.114 95.9635C163.146 96.7473 162.863 97.4413 163.146 98.3352C163.367 99.0304 166.543 102.501 170.203 106.049L176.859 112.498L172.035 119.726C167.285 126.844 166.382 129.273 167.916 130.807C169.09 131.98 170.506 131.667 172.202 129.859C174.605 127.301 183.698 112.714 183.698 111.418C183.698 110.748 180.86 107.664 176.816 103.942C173.032 100.458 169.797 97.4535 169.629 97.2658C169.065 96.6361 166.303 94.8556 165.89 94.8556C165.667 94.8556 164.867 95.3539 164.114 95.9635Z" fill="black"></path> <path d="M41.808 313.35C37.9566 313.35 36.0309 312.339 36.0309 310.317V280.854L16.9179 249.874C16.306 248.827 16 248.033 16 247.491C16 246.878 16.5039 246.408 17.5118 246.083C18.5556 245.722 20.1034 245.542 22.155 245.542H26.2044C27.7522 245.542 28.994 245.686 29.9298 245.975C30.9017 246.228 31.5856 246.697 31.9815 247.383L43.6977 268.018L55.5219 247.383C55.9178 246.697 56.6017 246.228 57.5735 245.975C58.5454 245.686 59.7872 245.542 61.299 245.542H64.7004C66.7521 245.542 68.2819 245.722 69.2897 246.083C70.2976 246.408 70.8015 246.878 70.8015 247.491C70.8015 248.214 70.4955 249.008 69.8836 249.874L50.8246 281.125V310.317C50.8246 312.339 48.9169 313.35 45.1015 313.35H41.808Z" fill="black"></path> <path d="M105.302 314C98.7511 314 93.172 312.664 88.5647 309.992C83.9934 307.32 80.502 303.421 78.0903 298.294C75.7147 293.13 74.5269 286.848 74.5269 279.446C74.5269 272.08 75.7147 265.834 78.0903 260.706C80.502 255.543 83.9934 251.644 88.5647 249.008C93.172 246.336 98.7511 245 105.302 245C111.889 245 117.468 246.336 122.04 249.008C126.647 251.644 130.138 255.543 132.514 260.706C134.89 265.834 136.077 272.08 136.077 279.446C136.077 286.848 134.89 293.13 132.514 298.294C130.138 303.421 126.647 307.32 122.04 309.992C117.468 312.664 111.889 314 105.302 314ZM105.302 301.327C110.449 301.327 114.337 299.467 116.964 295.748C119.592 291.993 120.906 286.559 120.906 279.446C120.906 272.333 119.592 266.935 116.964 263.252C114.337 259.569 110.449 257.728 105.302 257.728C100.191 257.728 96.3035 259.587 93.6399 263.306C91.0123 266.989 89.6985 272.369 89.6985 279.446C89.6985 286.559 91.0303 291.993 93.6939 295.748C96.3575 299.467 100.227 301.327 105.302 301.327Z" fill="black"></path> <path d="M150.871 313.188C149.539 313.188 148.567 312.881 147.955 312.267C147.344 311.653 147.038 310.678 147.038 309.342V249.604C147.038 248.268 147.344 247.311 147.955 246.733C148.567 246.119 149.539 245.812 150.871 245.812H172.36C178.947 245.812 184.526 247.112 189.097 249.712C193.704 252.276 197.178 256.067 199.517 261.086C201.893 266.104 203.081 272.224 203.081 279.446C203.081 286.703 201.893 292.841 199.517 297.86C197.178 302.879 193.704 306.688 189.097 309.288C184.526 311.888 178.947 313.188 172.36 313.188H150.871ZM172.36 300.568C177.471 300.568 181.34 298.781 183.968 295.206C186.595 291.596 187.909 286.342 187.909 279.446C187.909 272.586 186.595 267.368 183.968 263.794C181.34 260.183 177.471 258.378 172.36 258.378H161.939V300.568H172.36Z" fill="black"></path> <path d="M242.225 314C235.674 314 230.095 312.664 225.487 309.992C220.916 307.32 217.425 303.421 215.013 298.294C212.637 293.13 211.45 286.848 211.45 279.446C211.45 272.08 212.637 265.834 215.013 260.706C217.425 255.543 220.916 251.644 225.487 249.008C230.095 246.336 235.674 245 242.225 245C248.812 245 254.391 246.336 258.962 249.008C263.569 251.644 267.061 255.543 269.437 260.706C271.812 265.834 273 272.08 273 279.446C273 286.848 271.812 293.13 269.437 298.294C267.061 303.421 263.569 307.32 258.962 309.992C254.391 312.664 248.812 314 242.225 314ZM242.225 301.327C247.372 301.327 251.259 299.467 253.887 295.748C256.515 291.993 257.828 286.559 257.828 279.446C257.828 272.333 256.515 266.935 253.887 263.252C251.259 259.569 247.372 257.728 242.225 257.728C237.114 257.728 233.226 259.587 230.563 263.306C227.935 266.989 226.621 272.369 226.621 279.446C226.621 286.559 227.953 291.993 230.617 295.748C233.28 299.467 237.15 301.327 242.225 301.327Z" fill="black"></path> </svg> 