<?xml version="1.0" encoding="UTF-8"?>
<svg width="30px" height="30px" viewBox="0 0 30 30" version="1.1" xmlns="http://www.w3.org/2000/svg" xmlns:xlink="http://www.w3.org/1999/xlink">
    <!-- Generator: Sketch 50.2 (55047) - http://www.bohemiancoding.com/sketch -->
    <title>Fill 1</title>
    <desc>Created with Sketch.</desc>
    <defs></defs>
    <g id="Page-1" stroke="none" stroke-width="1" fill="none" fill-rule="evenodd">
        <g id="WEB-300x600" transform="translate(-1279.000000, -6356.000000)" fill="#FEFEFE">
            <g id="Подвал" transform="translate(0.000000, 6334.000000)">
                <path d="M1300.58716,40.9722464 C1300.58716,39.0127653 1300.45652,37.5228721 1298.70502,36.8432415 C1300.16845,35.7724023 1300.19457,34.6744053 1300.19457,33.7861072 L1300.19457,32.8974653 C1300.03781,29.9441491 1299.04501,28.8203694 1295.62142,28.8203694 C1292.19851,28.8203694 1291.20571,29.9441491 1291.04826,32.8974653 L1291.04826,33.7861072 C1291.04826,34.6744053 1291.07473,35.7724023 1292.53781,36.8432415 C1290.78734,37.5228721 1290.65671,39.0127653 1290.65671,40.9722464 C1290.65671,43.872966 1291.67564,45.3102626 1295.62142,45.3886419 C1299.56754,45.3102626 1300.58716,43.872966 1300.58716,40.9722464 Z M1288.72714,30.0225283 C1288.72714,29.2648623 1288.25617,29.10776 1287.34175,29.10776 L1284.96356,29.10776 C1284.04948,29.10776 1283.57852,29.2648623 1283.57852,30.0225283 L1283.57852,30.8850438 C1283.57852,31.6427098 1284.04948,31.7991245 1284.96356,31.7991245 L1285.51221,31.7991245 C1285.8522,31.7991245 1286.00862,31.9830407 1286.00862,32.5052253 L1286.00862,43.7945868 C1286.00862,44.7090113 1286.16572,45.178943 1286.92373,45.178943 L1287.81168,45.178943 C1288.57004,45.178943 1288.72714,44.7090113 1288.72714,43.7945868 L1288.72714,30.0225283 Z M1306.70211,35.6668653 L1306.70211,34.4389238 C1306.70211,33.524843 1306.57114,33.0542238 1305.78734,33.0542238 L1305.00286,33.0542238 C1304.21941,33.0542238 1304.08844,33.524843 1304.08844,34.4389238 L1304.08844,35.6668653 L1302.8605,35.6668653 C1301.94607,35.6668653 1301.47545,35.7978411 1301.47545,36.5819774 L1301.47545,37.4183664 C1301.47545,38.2018151 1301.94607,38.3331347 1302.8605,38.3331347 L1304.08844,38.3331347 L1304.08844,39.5610762 C1304.08844,40.4758445 1304.21941,40.94612 1305.00286,40.94612 L1305.78734,40.94612 C1306.57114,40.94612 1306.70211,40.4758445 1306.70211,39.5610762 L1306.70211,38.3331347 L1308.45258,38.3331347 C1308.79257,38.3331347 1308.97545,38.5156758 1309.00158,38.855663 L1309.00158,42.8272219 C1309.00158,43.7945868 1308.71385,44.5261264 1308.03456,45.178943 L1302.20699,51.0065087 C1301.52736,51.686483 1300.7697,52 1299.82915,52 L1288.17367,52 C1287.23312,52 1286.47545,51.686483 1285.79582,51.0065087 L1279.96826,45.178943 C1279.28897,44.5 1278.97477,43.7945868 1279.00158,42.8272219 L1279.00158,31.3034102 C1279.00158,30.3363891 1279.31544,29.5 1280.02085,28.7945868 L1285.95258,22.7841362 C1286.55383,22.1832287 1287.3115,22 1288.17367,22 L1299.82915,22 C1300.69132,22 1301.44898,22.1832287 1302.05023,22.7841362 L1307.98231,28.7945868 C1308.66159,29.5 1309.00158,30.3363891 1309.00158,31.3034102 L1309.00158,35.0659577 C1309.00158,35.4581977 1308.81835,35.6668653 1308.45258,35.6668653 L1306.70211,35.6668653 Z M1295.62142,38.2018151 C1293.94933,38.2018151 1293.34808,38.9598249 1293.34808,40.6064766 C1293.34808,42.2531283 1293.94933,42.9059449 1295.62142,42.9059449 C1297.29385,42.9059449 1297.8951,42.2531283 1297.8951,40.6064766 C1297.8951,38.9598249 1297.29385,38.2018151 1295.62142,38.2018151 Z M1293.60968,33.4983728 C1293.60968,31.7475592 1294.18481,31.2246872 1295.62142,31.2246872 C1297.05906,31.2246872 1297.63418,31.7475592 1297.63418,33.4983728 C1297.63418,35.1969336 1297.05906,35.7724023 1295.62142,35.7724023 C1294.18481,35.7724023 1293.60968,35.1969336 1293.60968,33.4983728 Z" id="Fill-1"></path>
            </g>
        </g>
    </g>
</svg>