<?xml version="1.0" encoding="UTF-8"?>
<svg width="20px" height="18px" viewBox="0 0 20 18" version="1.1" xmlns="http://www.w3.org/2000/svg" xmlns:xlink="http://www.w3.org/1999/xlink">
    <!-- Generator: Sketch 50.2 (55047) - http://www.bohemiancoding.com/sketch -->
    <title>Календарь_icon</title>
    <desc>Created with Sketch.</desc>
    <defs></defs>
    <g id="Page-1" stroke="none" stroke-width="1" fill="none" fill-rule="evenodd">
        <g id="WEB-300x600" transform="translate(-202.000000, -159.000000)" fill="#FFFFFF" fill-rule="nonzero">
            <g id="HEAD">
                <g id="Menu-2" transform="translate(0.000000, 146.000000)">
                    <path d="M218.011905,15 L220.26087,15 C221.221304,15 222,15.7541053 222,16.6842105 L222,29.3157895 C222,30.2458947 221.221304,31 220.26087,31 L203.73913,31 C202.778696,31 202,30.2458947 202,29.3157895 L202,16.6842105 C202,15.7541053 202.778696,15 203.73913,15 L206,15 L206,13 L207.011905,13 L207.011905,15 L217,15 L217,13 L218.011905,13 L218.011905,15 Z M221.047619,16.6311765 C221.047619,16.2502965 220.661587,15.9411765 220.185941,15.9411765 L203.814059,15.9411765 C203.338413,15.9411765 202.952381,16.2502965 202.952381,16.6311765 L202.952381,18.7011765 L221.047619,18.7011765 L221.047619,16.6311765 Z M221.047619,19.7058824 L202.952381,19.7058824 L202.952381,29.1960784 C202.952381,29.6723137 203.338413,30.0588235 203.814059,30.0588235 L220.185941,30.0588235 C220.661587,30.0588235 221.047619,29.6723137 221.047619,29.1960784 L221.047619,19.7058824 Z M219.619048,26.2941176 L218.666667,26.2941176 C218.40381,26.2941176 218.190476,26.0837647 218.190476,25.8235294 L218.190476,24.8823529 C218.190476,24.6225882 218.40381,24.4117647 218.666667,24.4117647 L219.619048,24.4117647 C219.882381,24.4117647 220.095238,24.6225882 220.095238,24.8823529 L220.095238,25.8235294 C220.095238,26.0837647 219.882381,26.2941176 219.619048,26.2941176 Z M219.619048,23.4705882 L218.666667,23.4705882 C218.40381,23.4705882 218.190476,23.2602353 218.190476,23 L218.190476,22.0588235 C218.190476,21.7985882 218.40381,21.5882353 218.666667,21.5882353 L219.619048,21.5882353 C219.882381,21.5882353 220.095238,21.7985882 220.095238,22.0588235 L220.095238,23 C220.095238,23.2602353 219.882381,23.4705882 219.619048,23.4705882 Z M215.809524,26.2941176 L214.857143,26.2941176 C214.594286,26.2941176 214.380952,26.0837647 214.380952,25.8235294 L214.380952,24.8823529 C214.380952,24.6225882 214.594286,24.4117647 214.857143,24.4117647 L215.809524,24.4117647 C216.072857,24.4117647 216.285714,24.6225882 216.285714,24.8823529 L216.285714,25.8235294 C216.285714,26.0837647 216.072857,26.2941176 215.809524,26.2941176 Z M215.809524,23.4705882 L214.857143,23.4705882 C214.594286,23.4705882 214.380952,23.2602353 214.380952,23 L214.380952,22.0588235 C214.380952,21.7985882 214.594286,21.5882353 214.857143,21.5882353 L215.809524,21.5882353 C216.072857,21.5882353 216.285714,21.7985882 216.285714,22.0588235 L216.285714,23 C216.285714,23.2602353 216.072857,23.4705882 215.809524,23.4705882 Z M212.952381,26.2941176 L212,26.2941176 C211.736667,26.2941176 211.52381,26.0837647 211.52381,25.8235294 L211.52381,24.8823529 C211.52381,24.6225882 211.736667,24.4117647 212,24.4117647 L212.952381,24.4117647 C213.215714,24.4117647 213.428571,24.6225882 213.428571,24.8823529 L213.428571,25.8235294 C213.428571,26.0837647 213.215714,26.2941176 212.952381,26.2941176 Z M212.952381,23.4705882 L212,23.4705882 C211.736667,23.4705882 211.52381,23.2602353 211.52381,23 L211.52381,22.0588235 C211.52381,21.7985882 211.736667,21.5882353 212,21.5882353 L212.952381,21.5882353 C213.215714,21.5882353 213.428571,21.7985882 213.428571,22.0588235 L213.428571,23 C213.428571,23.2602353 213.215714,23.4705882 212.952381,23.4705882 Z M209.142857,29.1176471 L208.190476,29.1176471 C207.927143,29.1176471 207.714286,28.9072941 207.714286,28.6470588 L207.714286,27.7058824 C207.714286,27.4456471 207.927143,27.2352941 208.190476,27.2352941 L209.142857,27.2352941 C209.40619,27.2352941 209.619048,27.4456471 209.619048,27.7058824 L209.619048,28.6470588 C209.619048,28.9072941 209.40619,29.1176471 209.142857,29.1176471 Z M209.142857,26.2941176 L208.190476,26.2941176 C207.927143,26.2941176 207.714286,26.0837647 207.714286,25.8235294 L207.714286,24.8823529 C207.714286,24.6225882 207.927143,24.4117647 208.190476,24.4117647 L209.142857,24.4117647 C209.40619,24.4117647 209.619048,24.6225882 209.619048,24.8823529 L209.619048,25.8235294 C209.619048,26.0837647 209.40619,26.2941176 209.142857,26.2941176 Z M209.142857,23.4705882 L208.190476,23.4705882 C207.927143,23.4705882 207.714286,23.2602353 207.714286,23 L207.714286,22.0588235 C207.714286,21.7985882 207.927143,21.5882353 208.190476,21.5882353 L209.142857,21.5882353 C209.40619,21.5882353 209.619048,21.7985882 209.619048,22.0588235 L209.619048,23 C209.619048,23.2602353 209.40619,23.4705882 209.142857,23.4705882 Z M205.333333,29.1176471 L204.380952,29.1176471 C204.117619,29.1176471 203.904762,28.9072941 203.904762,28.6470588 L203.904762,27.7058824 C203.904762,27.4456471 204.117619,27.2352941 204.380952,27.2352941 L205.333333,27.2352941 C205.596667,27.2352941 205.809524,27.4456471 205.809524,27.7058824 L205.809524,28.6470588 C205.809524,28.9072941 205.596667,29.1176471 205.333333,29.1176471 Z M205.333333,26.2941176 L204.380952,26.2941176 C204.117619,26.2941176 203.904762,26.0837647 203.904762,25.8235294 L203.904762,24.8823529 C203.904762,24.6225882 204.117619,24.4117647 204.380952,24.4117647 L205.333333,24.4117647 C205.596667,24.4117647 205.809524,24.6225882 205.809524,24.8823529 L205.809524,25.8235294 C205.809524,26.0837647 205.596667,26.2941176 205.333333,26.2941176 Z M212,27.2352941 L212.952381,27.2352941 C213.215714,27.2352941 213.428571,27.4456471 213.428571,27.7058824 L213.428571,28.6470588 C213.428571,28.9072941 213.215714,29.1176471 212.952381,29.1176471 L212,29.1176471 C211.736667,29.1176471 211.52381,28.9072941 211.52381,28.6470588 L211.52381,27.7058824 C211.52381,27.4456471 211.736667,27.2352941 212,27.2352941 Z" id="Календарь_icon"></path>
                </g>
            </g>
        </g>
    </g>
</svg>