<?xml version="1.0" encoding="UTF-8"?>
<svg width="14px" height="14px" viewBox="0 0 14 14" version="1.1" xmlns="http://www.w3.org/2000/svg" xmlns:xlink="http://www.w3.org/1999/xlink">
    <!-- Generator: Sketch 50.2 (55047) - http://www.bohemiancoding.com/sketch -->
    <title>Shape</title>
    <desc>Created with Sketch.</desc>
    <defs></defs>
    <g id="Page-1" stroke="none" stroke-width="1" fill="none" fill-rule="evenodd">
        <g id="WEB-300x600" transform="translate(-429.000000, -162.000000)" fill="#655F60" fill-rule="nonzero">
            <g id="HEAD">
                <g id="Menu-2" transform="translate(0.000000, 146.000000)">
                    <g id="Search" transform="translate(239.000000, 6.000000)">
                        <path d="M204,23.1505208 L199.869271,19.0161458 C200.627604,18.0682292 201.083333,16.8614583 201.083333,15.5489583 C201.083333,12.4828125 198.600521,10 195.541667,10 C192.479167,10 190,12.4864583 190,15.5489583 C190,18.6114583 192.482812,21.0979167 195.541667,21.0979167 C196.861458,21.0979167 198.071875,20.6348958 199.023438,19.865625 L203.150521,24 L204,23.1505208 Z M192.034375,19.0635417 C191.097396,18.1265625 190.583333,16.8796875 190.583333,15.5526042 C190.583333,14.2255208 191.101042,12.9786458 192.034375,12.0416667 C192.967708,11.1046875 194.218229,10.5833333 195.541667,10.5833333 C196.865104,10.5833333 198.111979,11.1010417 199.048958,12.0380208 C199.985938,12.975 200.5,14.221875 200.5,15.5489583 C200.5,16.8760417 199.982292,18.1229167 199.048958,19.0598958 C198.111979,19.996875 196.865104,20.5145833 195.541667,20.5145833 C194.218229,20.5182292 192.971354,20.0005208 192.034375,19.0635417 Z" id="Shape"></path>
                    </g>
                </g>
            </g>
        </g>
    </g>
</svg>